# xmcd
# 
# Track frame offsets:
#     150
#     13285
#     33971
#     54172
#     75194
#     92510
#     114434
#     144262
#     193181
#     226074
#     242965
#     262038
#     279306
# 
# Disc length: 4154
# 
# Revision: 1
# Processed by: cddbd v1.5.2PL0 Copyright (c) Steve Scherf et al.
# Submitted via: fre:ac v1.1beta1pre4
# 
DISCID=9e10380d
DTITLE=Alluvium 40 Jahre - 40 Jahre Jazzclub ALLUVIUM, Der Jubiläumssampler
DYEAR=1998
DGENRE=Jazz
TTITLE0=Flower Street Jazzband - Heil Dir, oh Oldenburg
TTITLE1=Rafael Jung Trio feat. Corinna Meyer - Saving all my love for you
TTITLE2=Florian Poser and Klaus Ignatzek - Mandevilla
TTITLE3=Be mine or run - Mandevilla
TTITLE4=Sax Pack - Chicken tall
TTITLE5=Fals Fingering - Zwielicht
TTITLE6=Gerhard Böhm - Echo Ostinato
TTITLE7=Chris Jarret - Broken Stone
TTITLE8=Nea feat. Romy Camerun - The summer knows
TTITLE9=Harpface and the heat - I don´t care
TTITLE10=Sup - Turn it on
TTITLE11=Frank Band - Mir egal
TTITLE12=Hannes Clauss Quartett - Nix marsch
EXTD=YEAR: 1998
EXTT0=
EXTT1=
EXTT2=
EXTT3=
EXTT4=
EXTT5=
EXTT6=
EXTT7=
EXTT8=
EXTT9=
EXTT10=
EXTT11=
EXTT12=
PLAYORDER=
